<?xml version="1.0" encoding="utf-8"?>
<!-- Generator: Adobe Illustrator 25.2.1, SVG Export Plug-In . SVG Version: 6.00 Build 0)  -->
<svg version="1.1" id="Layer_1" xmlns="http://www.w3.org/2000/svg" xmlns:xlink="http://www.w3.org/1999/xlink" x="0px" y="0px"
	 viewBox="0 0 98.5 32.2" style="enable-background:new 0 0 98.5 32.2;" xml:space="preserve">
<style type="text/css">
	.st0{fill:#343435;}
	.st1{fill:url(#SVGID_1_);}
	.st2{fill:url(#SVGID_2_);}
	.st3{fill:url(#SVGID_3_);}
	.st4{fill:#FFFFFF;}
	.st5{fill:#C3C4C6;}
	.st6{fill:#518FC2;}
</style>
<path class="st0" d="M45.5,15.1c-0.4-0.1-0.7-0.3-1-0.5c-0.4-0.2-0.7-0.5-1-0.9c-0.2,0.4-0.5,0.7-0.8,0.9c-0.4,0.3-0.8,0.5-1.3,0.7
	l-0.8-1c0.6-0.2,1.1-0.5,1.5-0.9c0.5-0.4,0.8-1,0.8-1.6v-0.3h-1.7v-1.2h4.7v1.2h-1.7v0.3c0,0.5,0.2,1.1,0.6,1.4
	c0.4,0.3,0.9,0.6,1.4,0.8L45.5,15.1z M42.1,18.6v-2.9h1.4v1.8h5.3v1.2H42.1z M47.3,16.3V9.9h1.3v6.4H47.3z"/>
<path class="st0" d="M54.7,15.1c-0.4-0.1-0.7-0.3-1-0.5c-0.4-0.2-0.7-0.5-1-0.9c-0.2,0.4-0.5,0.7-0.8,0.9c-0.4,0.3-0.8,0.5-1.3,0.7
	l-0.8-1c0.6-0.2,1.1-0.4,1.5-0.8c0.5-0.4,0.8-1,0.7-1.7v-0.3h-1.7v-1.2h4.7v1.2h-1.7v0.3c0,0.6,0.2,1.1,0.6,1.4
	c0.4,0.3,0.9,0.6,1.4,0.8L54.7,15.1z M51.4,18.6v-2.9h1.4v1.8h5.3v1.2H51.4z M56.6,16.3V9.9h1.3v6.4H56.6z"/>
<path class="st0" d="M64.1,17.1c-0.4-0.3-0.8-0.6-1.2-0.9c-0.4-0.4-0.7-0.8-1-1.3c-0.2,0.5-0.6,1-1,1.4c-0.3,0.4-0.7,0.7-1.2,0.9
	l-1-0.9c0.6-0.3,1.2-0.8,1.6-1.3c0.6-0.7,0.9-1.6,0.8-2.6v-2h1.4v2c-0.1,0.9,0.2,1.8,0.8,2.5c0.4,0.5,0.9,0.9,1.5,1.3L64.1,17.1z
	 M65.7,18.8V9.9H67v8.9L65.7,18.8z"/>
<path class="st0" d="M68,17.8v-1.1h8.9v1.1H68z M75.6,15.5c-0.6-0.2-1.2-0.5-1.7-0.8c-0.6-0.4-1.1-0.8-1.5-1.4
	c-0.4,0.6-0.9,1-1.4,1.4c-0.5,0.4-1.1,0.7-1.8,0.9l-0.9-1c0.8-0.3,1.6-0.7,2.3-1.3c0.6-0.5,1-1.2,1-2v-0.9h1.5v0.9
	c0,0.8,0.4,1.5,1,2c0.7,0.6,1.5,1,2.3,1.3L75.6,15.5z"/>
<path class="st0" d="M81.1,14.7l-0.8,0.1c-0.4,0-1,0-1.6,0h-1v-4.4H81v1.1h-2v0.6h2v1.1h-1.9v0.6h0.4h0.8l0.8-0.1l0.6-0.1v1
	C81.5,14.7,81.3,14.7,81.1,14.7z M78.9,18.7v-3.3h6.6v3.3L78.9,18.7z M84.2,16.6h-4v1h4V16.6z M82.3,15.1v-2.2h-1v-1.1h1v-1.8h1.3v5
	L82.3,15.1z M84.2,15.1V9.9h1.3v5.1L84.2,15.1z"/>
<path class="st0" d="M88,18.8c-0.3-0.4-0.6-0.9-0.9-1.5c-0.3-0.7-0.5-1.4-0.5-2.2c0-0.7,0.2-1.5,0.5-2.1c0.3-0.6,0.6-1.1,0.9-1.5
	h0.8c-0.3,0.6-0.6,1.2-0.8,1.9c-0.3,1.1-0.3,2.3,0,3.4c0.2,0.7,0.5,1.3,0.9,1.9H88z"/>
<path class="st0" d="M93.1,16.3v2.1H92v-2.1h-2.8v-0.9h6.7v0.9H93.1z M94.9,15c-0.4-0.1-0.8-0.2-1.2-0.4c-0.4-0.2-0.8-0.4-1.1-0.8
	c-0.2,0.3-0.6,0.6-0.9,0.7c-0.4,0.2-0.9,0.4-1.4,0.5l-0.6-0.7c0.5-0.1,1-0.2,1.5-0.5c0.4-0.1,0.8-0.5,0.9-0.9h-2V12h5.2v0.9h-2
	c0.2,0.4,0.6,0.7,1,0.9c0.4,0.2,0.9,0.4,1.4,0.5L94.9,15z"/>
<path class="st0" d="M97.1,16.8c0.2-0.6,0.2-1.1,0.2-1.7c0-0.6-0.1-1.2-0.2-1.7c-0.2-0.7-0.5-1.3-0.8-1.9H97c0.3,0.5,0.6,1,0.8,1.5
	c0.3,0.7,0.5,1.4,0.4,2.1c0,0.7-0.1,1.5-0.4,2.1c-0.2,0.5-0.5,1-0.8,1.5h-0.7C96.7,18.1,96.9,17.5,97.1,16.8z"/>
<linearGradient id="SVGID_1_" gradientUnits="userSpaceOnUse" x1="19.23" y1="30.15" x2="19.23" y2="4.12" gradientTransform="matrix(1 0 0 -1 0 35.89)">
	<stop  offset="0" style="stop-color:#4FA0CE"/>
	<stop  offset="0.53" style="stop-color:#3070AF"/>
	<stop  offset="1" style="stop-color:#3070AF"/>
</linearGradient>
<path class="st1" d="M32.4,19c0,7.3-5.9,13.2-13.2,13.2S6.1,26.3,6.1,19c0-7.3,5.9-13.2,13.2-13.2c0,0,0,0,0,0
	C26.5,5.8,32.4,11.7,32.4,19C32.4,19,32.4,19,32.4,19z"/>
<linearGradient id="SVGID_2_" gradientUnits="userSpaceOnUse" x1="22.2" y1="35.91" x2="22.2" y2="28.04" gradientTransform="matrix(1 0 0 -1 0 35.89)">
	<stop  offset="0" style="stop-color:#4FA0CE"/>
	<stop  offset="0.53" style="stop-color:#3070AF"/>
	<stop  offset="1" style="stop-color:#3070AF"/>
</linearGradient>
<path class="st2" d="M24.6,2.4c0,1.3-1.1,2.4-2.4,2.4s-2.4-1.1-2.4-2.4S20.9,0,22.2,0c0,0,0,0,0,0C23.5,0,24.6,1.1,24.6,2.4z"/>
<linearGradient id="SVGID_3_" gradientUnits="userSpaceOnUse" x1="18.9744" y1="25.9704" x2="18.9744" y2="4.53" gradientTransform="matrix(1 0 0 -1 0 35.89)">
	<stop  offset="0.52" style="stop-color:#919296"/>
	<stop  offset="1" style="stop-color:#656669"/>
</linearGradient>
<path class="st3" d="M34,24.5c1.2,1.3,1.8,2.4,1.5,3.1c-1,1.9-8.9-0.2-17.7-4.8S2.8,13,3.8,11.1c0.3-0.7,1.6-0.8,3.4-0.6
	c-3.7-0.9-6.3-0.8-6.9,0.4c-1.3,2.5,6.1,8.8,16.4,14.2s19.8,7.7,21.1,5.3C38.3,29.2,36.9,27,34,24.5z"/>
<path class="st4" d="M23.8,24c0.1,1.7-0.6,3.4-1.9,4.5c-1.2,1-2.7,1.6-4.3,1.6c-1.5,0-3.1-0.5-4.2-1.5c-1.3-1.1-2-2.7-1.9-4.4v-2
	h3.7v1.4c-0.1,0.8,0.2,1.7,0.7,2.3c0.4,0.5,1.1,0.7,1.7,0.7c0.7,0,1.3-0.3,1.8-0.7c0.5-0.7,0.8-1.5,0.7-2.3V8.4h3.7V24z"/>
<rect x="39.5" y="21.8" class="st5" width="59" height="1"/>
<path class="st6" d="M45.5,28.3c-0.2-0.1-0.4-0.3-0.6-0.5c-0.2-0.2-0.4-0.4-0.5-0.7c-0.1,0.3-0.2,0.5-0.4,0.7
	c-0.2,0.2-0.4,0.4-0.6,0.5l-0.3-0.3c0.4-0.2,0.7-0.5,0.9-0.9c0.2-0.4,0.3-0.8,0.3-1.2v-0.6h0.5V26c-0.1,0.8,0.4,1.6,1.1,2L45.5,28.3
	z M46.2,29v-3.8h0.4V29L46.2,29z"/>
<path class="st6" d="M47.1,28.5v-0.4h3.8v0.4L47.1,28.5z M48.5,27.1c-0.3,0.2-0.5,0.4-0.9,0.5l-0.3-0.3c0.5-0.1,0.9-0.4,1.2-0.8
	c0.1-0.2,0.2-0.5,0.2-0.8v-0.3h0.5v0.3c0,0.3,0.1,0.5,0.3,0.8c0.3,0.4,0.7,0.7,1.2,0.8l-0.3,0.3c-0.3-0.1-0.6-0.3-0.9-0.5
	c-0.2-0.2-0.4-0.4-0.6-0.7C48.9,26.7,48.7,26.9,48.5,27.1z"/>
<path class="st6" d="M52.7,27.2h-0.5h-0.8v-1.8h1.4v0.4h-1v0.4h0.9v0.3h-0.9v0.4h0.4h0.5H53v0.3L52.7,27.2z M51.8,29v-1.4h2.8V29
	H51.8z M54.2,28h-2v0.6h2V28z M53.4,27.4v-1h-0.5v-0.4h0.5v-0.8h0.4v2.2L53.4,27.4z M54.2,27.4v-2.3h0.4v2.2L54.2,27.4z"/>
<path class="st6" d="M56.6,28.6v-0.4h1.7v-0.8h0.4v0.8h1.7v0.4H56.6z M58,27c-0.3,0.2-0.5,0.4-0.9,0.5l-0.3-0.3
	c0.5-0.1,0.9-0.4,1.2-0.8c0.1-0.2,0.2-0.5,0.2-0.8v-0.3h0.5v0.3c0,0.3,0.1,0.5,0.3,0.8c0.3,0.4,0.7,0.7,1.2,0.8L60,27.5
	c-0.3-0.1-0.6-0.3-0.9-0.5c-0.2-0.2-0.4-0.4-0.6-0.7C58.4,26.6,58.2,26.8,58,27z"/>
<path class="st6" d="M60.7,28.5v-0.4h3.8v0.4H60.7z M61,27.5v-0.4h0.6l-0.1-1.1H62l0.1,1.1h1l0.1-1.1h0.4l-0.1,1.1h0.6v0.4H61z
	 M61.1,25.9v-0.4h3v0.4H61.1z"/>
<path class="st6" d="M64.7,28.5v-0.4h3.8v0.4H64.7z M65.2,27.6v-2.1H68v0.4h-2.3v0.5H68v0.4h-2.3v0.5h2.4v0.4H65.2z"/>
<path class="st6" d="M70.5,27.6H70v1.2h-0.4v-1.2h-0.8v-0.4h0.7h0.8l0.6-0.1v0.4L70.5,27.6z M70.5,26.7c-0.3,0.3-0.9,0.3-1.2,0
	c-0.2-0.1-0.3-0.4-0.3-0.6c0-0.2,0.1-0.4,0.2-0.6c0.2-0.2,0.4-0.2,0.6-0.2c0.2,0,0.5,0.1,0.6,0.2c0.2,0.2,0.2,0.4,0.2,0.6
	C70.7,26.4,70.6,26.6,70.5,26.7L70.5,26.7z M70.2,25.8c-0.1-0.1-0.2-0.1-0.3-0.1c-0.1,0-0.2,0.1-0.3,0.1c-0.1,0.1-0.1,0.2-0.1,0.3
	c0,0.1,0,0.2,0.1,0.3c0.2,0.2,0.4,0.2,0.6,0c0,0,0,0,0,0c0.1-0.1,0.1-0.2,0.1-0.3C70.3,26,70.2,25.9,70.2,25.8L70.2,25.8z
	 M71.2,28.8v-0.6h-0.7v-0.4h0.7v-2.6h0.4v3.6L71.2,28.8z M72,29v-3.8h0.4V29L72,29z"/>
<path class="st6" d="M75.7,29v-2H75c0,0.3-0.1,0.7-0.3,0.9c-0.3,0.4-0.9,0.5-1.3,0.1c-0.1-0.1-0.1-0.1-0.2-0.2
	c-0.4-0.6-0.4-1.4,0-2.1c0.2-0.3,0.5-0.4,0.8-0.4c0.3,0,0.5,0.1,0.7,0.3c0.2,0.2,0.3,0.5,0.3,0.9h0.8v-1.4h0.4V29H75.7z M74.4,26.2
	c-0.1-0.2-0.3-0.3-0.4-0.3c-0.2,0-0.4,0.1-0.4,0.3c-0.2,0.5-0.2,1,0,1.4c0.1,0.2,0.3,0.3,0.4,0.3c0.2,0,0.4-0.1,0.4-0.3
	c0.1-0.2,0.2-0.5,0.2-0.7C74.6,26.6,74.5,26.4,74.4,26.2z"/>
<path class="st6" d="M79.8,27.1c-0.2,0.5-0.6,1-1.1,1.3l-0.3-0.2c0.5-0.2,0.8-0.6,1-1.1c0.1-0.3,0.2-0.6,0.2-0.9h-1v-0.4h1.5
	C80.1,26.2,80,26.6,79.8,27.1z M81.4,29v-2H81v1.8h-0.4v-3.5H81v1.4h0.4v-1.5h0.4V29H81.4z"/>
<path class="st6" d="M82.5,27.1v-1.7h0.4v0.6h1v-0.6h0.4v1.7H82.5z M82.9,29v-1h2.2v-0.3h-2.2v-0.4h2.7v1h-2.2v0.3h2.3V29H82.9z
	 M83.9,26.3h-1v0.5h1V26.3z M85.6,26.4v0.8h-0.4v-2h0.4V26h0.5v0.4L85.6,26.4z"/>
<path class="st6" d="M90.1,28.4h-0.9h-1.2v-0.4h1.2v-0.4c-0.2,0-0.4-0.1-0.6-0.2c-0.1-0.1-0.2-0.2-0.2-0.4c0-0.2,0.1-0.4,0.3-0.4
	c0.4-0.2,1-0.2,1.4,0c0.2,0.1,0.3,0.3,0.3,0.4c0,0.2-0.1,0.3-0.2,0.4c-0.2,0.1-0.4,0.2-0.6,0.2v0.4c0.2,0,0.4,0,0.6,0h0.5v0.4
	L90.1,28.4z M88.2,26.3v-0.4h2.3v0.4H88.2z M88.7,25.7v-0.4H90v0.4H88.7z M89.7,26.9c-0.1-0.1-0.3-0.1-0.4-0.1c-0.1,0-0.3,0-0.4,0.1
	c-0.1,0.1-0.2,0.1-0.2,0.2s0.1,0.2,0.2,0.2c0.1,0.1,0.3,0.1,0.4,0.1c0.1,0,0.3,0,0.4-0.1c0.1,0,0.2-0.1,0.2-0.2
	C89.9,27,89.8,26.9,89.7,26.9z M90.9,29v-3.8h0.4V29H90.9z"/>
<path class="st6" d="M94.1,28.3c-0.2-0.1-0.4-0.3-0.6-0.5c-0.2-0.2-0.4-0.4-0.5-0.7c-0.1,0.3-0.2,0.5-0.4,0.7
	c-0.2,0.2-0.4,0.4-0.6,0.5l-0.3-0.3c0.4-0.2,0.7-0.5,0.9-0.9c0.2-0.4,0.3-0.8,0.3-1.2v-0.6h0.5V26c0,0.4,0.1,0.8,0.3,1.2
	c0.2,0.3,0.5,0.6,0.8,0.8L94.1,28.3z M95.2,25.2v1.5h0.6v0.4h-0.6V29h-0.4v-3.8H95.2z"/>
</svg>
